<svg version="1.0" xmlns="http://www.w3.org/2000/svg"
  width="183.000000pt" height="275.000000pt" viewBox="0 0 183.000000 275.000000"
  preserveAspectRatio="xMidYMid meet">
  <g transform="translate(0.000000,275.000000) scale(0.100000,-0.100000)"
    fill="#000000" stroke="none">
    <path d="M0 1375 l0 -1375 915 0 915 0 -2 1368 -3 1367 -2 -1363 -3 -1362
      -905 0 -905 0 0 1365 0 1365 913 3 912 2 -917 3 -918 2 0 -1375z"/>
    <path d="M670 1811 l0 -131 25 0 c24 0 24 2 27 83 l3 82 48 -82 c43 -74 52
      -83 78 -83 l29 0 0 130 0 130 -25 0 c-25 0 -25 -1 -25 -80 0 -44 -3 -80 -7
      -80 -5 0 -28 35 -53 78 -37 62 -51 78 -73 80 l-27 3 0 -130z"/>
    <path d="M982 1927 c-49 -28 -70 -91 -52 -159 15 -54 34 -76 79 -88 47 -12
      100 2 132 36 21 22 24 35 24 96 0 66 -2 71 -33 99 -26 24 -41 29 -80 29 -26
      -1 -57 -6 -70 -13z m115 -49 c32 -30 32 -102 1 -135 -31 -33 -82 -31 -105 4
      -26 40 -23 111 7 135 30 24 69 23 97 -4z"/>
    <path d="M504 1573 c-12 -2 -34 -17 -49 -34 -58 -60 -39 -193 31 -219 98 -38
      184 21 184 127 0 90 -73 145 -166 126z m82 -51 c18 -11 34 -49 34 -77 0 -70
      -63 -115 -115 -81 -41 27 -46 114 -9 150 16 16 71 21 90 8z"/>
    <path d="M753 1565 c-39 -17 -53 -57 -32 -94 11 -19 32 -31 77 -44 47 -14 62
      -23 62 -38 0 -42 -69 -52 -99 -13 -23 30 -58 29 -53 -1 10 -63 128 -90 177
      -40 47 46 24 116 -42 131 -56 12 -84 27 -81 43 4 23 76 28 84 7 7 -18 54 -22
      54 -5 0 23 -21 47 -51 58 -41 14 -57 13 -96 -4z"/>
    <path d="M180 1440 l0 -130 30 0 c29 0 30 1 30 50 l0 50 44 0 c62 0 96 29 96
      81 0 63 -24 79 -120 79 l-80 0 0 -130z m138 78 c30 -30 1 -68 -51 -68 -19 0
      -26 6 -30 27 -3 15 -3 33 0 40 6 16 65 17 81 1z"/>
    <path d="M940 1550 c0 -17 7 -20 40 -20 l40 0 0 -110 0 -110 25 0 25 0 0 110
      0 110 40 0 c33 0 40 3 40 20 0 19 -7 20 -105 20 -98 0 -105 -1 -105 -20z"/>
    <path d="M1190 1440 l0 -130 100 0 c93 0 100 1 100 20 0 17 -8 19 -72 22 l-73
      3 -3 38 -3 37 69 0 c65 0 70 1 65 20 -5 17 -14 20 -69 20 l-64 0 0 30 0 30 70
      0 c63 0 70 2 70 20 0 19 -7 20 -95 20 l-95 0 0 -130z"/>
    <path d="M1440 1440 l0 -130 25 0 c24 0 25 3 25 56 0 54 0 55 28 52 20 -2 35
      -16 61 -55 28 -44 39 -53 63 -53 l30 0 -23 38 c-12 20 -31 47 -42 60 -12 12
      -15 22 -9 22 22 0 52 40 52 70 0 54 -28 70 -125 70 l-85 0 0 -130z m158 66 c6
      -27 -24 -46 -70 -46 -37 0 -38 1 -38 36 l0 35 52 -3 c43 -2 54 -7 56 -22z"/>
    <path d="M211 1109 c-17 -44 -31 -85 -31 -90 0 -18 38 -9 43 11 4 15 14 20 40
      20 27 0 37 -5 42 -20 3 -11 15 -20 26 -20 20 0 20 1 -40 153 -6 16 -18 27 -30
      27 -15 0 -26 -18 -50 -81z m63 5 c10 -26 7 -34 -15 -34 -15 0 -19 4 -15 16 3
      9 6 20 6 25 0 15 17 10 24 -7z"/>
    <path d="M394 1100 c25 -73 35 -90 51 -90 16 0 26 16 50 82 17 45 32 86 33 90
      2 4 -5 8 -15 8 -15 0 -24 -14 -37 -55 -9 -30 -21 -57 -26 -60 -4 -3 -17 21
      -27 52 -14 42 -25 59 -40 61 -19 3 -18 -1 11 -88z"/>
    <path d="M589 1163 c-60 -156 -59 -153 -39 -153 10 0 22 9 25 20 5 15 15 20
      40 20 24 0 38 -6 45 -20 6 -11 17 -20 26 -20 18 0 12 27 -23 118 -28 70 -55
      83 -74 35z m46 -60 c5 -19 2 -23 -14 -23 -23 0 -24 3 -15 38 7 26 18 20 29
      -15z"/>
    <path d="M740 1100 c0 -73 3 -90 15 -90 12 0 15 17 15 90 0 73 -3 90 -15 90
      -12 0 -15 -17 -15 -90z"/>
    <path d="M819 1143 c-1 -27 -3 -67 -4 -90 l-4 -43 65 0 c50 0 64 3 64 15 0 11
      -12 15 -45 15 l-45 0 0 75 c0 60 -3 75 -15 75 -11 0 -15 -12 -16 -47z"/>
    <path d="M1011 1168 c-5 -13 -21 -53 -34 -90 -24 -64 -24 -68 -6 -68 10 0 23
      9 29 20 7 13 21 20 40 20 19 0 33 -7 40 -20 11 -21 40 -28 40 -10 0 6 -14 47
      -31 90 -24 62 -35 80 -50 80 -11 0 -23 -10 -28 -22z m44 -65 c5 -19 2 -23 -14
      -23 -23 0 -24 3 -15 38 7 26 18 20 29 -15z"/>
    <path d="M1160 1100 l0 -90 56 0 c30 0 64 5 75 10 23 13 26 68 4 76 -12 5 -12
      9 0 28 13 19 13 25 -1 44 -13 18 -25 22 -75 22 l-59 0 0 -90z m105 40 c0 -18
      -52 -27 -67 -12 -17 17 2 33 35 30 20 -2 32 -8 32 -18z m-11 -56 c9 -3 16 -15
      16 -25 0 -15 -7 -19 -34 -19 -37 0 -51 12 -42 35 6 16 33 19 60 9z"/>
    <path d="M1348 1100 l3 -90 64 0 c53 0 63 3 59 15 -4 10 -20 15 -50 15 l-44 0
      0 75 c0 65 -2 75 -17 75 -16 0 -18 -10 -15 -90z"/>
    <path d="M1505 1100 l0 -90 73 0 c55 0 73 3 70 13 -3 7 -26 13 -56 15 -48 3
      -52 5 -52 28 0 22 4 24 45 24 33 0 45 4 45 15 0 11 -12 15 -45 15 -38 0 -45 3
      -45 20 0 17 7 20 50 20 38 0 50 4 50 15 0 12 -14 15 -67 15 l-68 0 0 -90z"/>
  </g>
</svg>
